<?xml version="1.0" encoding="utf-8"?>
<!-- Generator: Adobe Illustrator 25.4.1, SVG Export Plug-In . SVG Version: 6.00 Build 0)  -->
<svg version="1.1" id="logo-20" xmlns="http://www.w3.org/2000/svg" xmlns:xlink="http://www.w3.org/1999/xlink" x="0px" y="0px"
	 viewBox="0 0 176.2 84.9" style="enable-background:new 0 0 176.2 84.9;" xml:space="preserve">
<style type="text/css">
	.st0{fill:#9E9E9E;}
</style>
<path class="st0" d="M5,28c1.3,1.9,3.2,4.3,6,4.2c2.6,0.1,4.8-1.6,6.5-3.1c1.9-1.6,3.6-3.9,4.3-6.4c-2.6-0.8-5.2,0.7-7,2
	c-2,1.4-3.5,4-3.8,6.6c0-2.6-0.7-5.3-1.9-7.5c-1-2-2.5-4.7-5.1-5.2C3,21.7,3.3,25.5,5,28z"/>
<g>
	<path class="st0" d="M162.2,14.8c0.8-3.3-0.8-6.3-2.5-8.8c-1.8-2.7-4.9-5.1-8.2-6c0.6,3.1,2.4,5.7,4.1,8.2
		C157.4,10.7,159.6,13.2,162.2,14.8z"/>
	<path class="st0" d="M20.6,8.2c1.7-2.5,3.5-5.2,4.1-8.2c-3.4,0.9-6.4,3.3-8.2,6c-1.7,2.5-3.2,5.5-2.5,8.8
		C16.7,13.2,18.9,10.7,20.6,8.2z"/>
	<path class="st0" d="M11.4,21.9c2.5,0.6,5.1-0.8,7.2-1.9c2.3-1.2,4.5-3.2,5.8-5.6c-2.5-1.2-5.3-0.2-7.4,0.7c-2.3,1-4.4,3.3-5.3,5.9
		c0.6-2.6,0.6-5.4,0-7.8C11.2,11.1,10.4,8,8,7c-1.8,2.8-2.5,6.7-1.4,9.6C7.3,18.7,8.6,21.5,11.4,21.9z"/>
	<polygon class="st0" points="50.1,18.8 56.7,18.8 56.7,23.5 61.1,23.5 61.1,10.5 56.7,10.5 56.7,15.3 50.1,15.3 50.1,10.5 
		45.6,10.5 45.6,23.5 50.1,23.5 	"/>
	<polygon class="st0" points="69.3,23.5 73.8,23.5 73.8,19.2 80.7,10.5 75.8,10.5 71.6,15.7 67.5,10.5 62.5,10.5 69.3,19.2 	"/>
	<path class="st0" d="M86.5,19.9c0,0,5.1,0,5.7,0c1.9,0,3.4-0.5,4.3-1.5c0.7-0.7,1-1.8,1-3.2c0-1.7-0.5-2.9-1.4-3.6
		c-0.8-0.7-2.2-1.1-4-1.1H82.1v13h4.4V19.9z M86.5,13.7h4.6c0.9,0,1.4,0.2,1.7,0.6c0.1,0.2,0.2,0.6,0.2,1c0,0.4-0.1,0.7-0.2,0.9
		c-0.3,0.4-0.8,0.6-1.7,0.6h-4.6V13.7z"/>
	<polygon class="st0" points="112.9,20.3 103.6,20.3 103.6,18.6 112.5,18.6 112.5,15.4 103.6,15.4 103.6,13.8 112.8,13.8 
		112.8,10.5 99.3,10.5 99.3,23.5 112.9,23.5 	"/>
	<path class="st0" d="M119.4,18.9h4l3.2,4.6h4.9l-3.9-5.3c0.9-0.1,1.6-0.7,2-1.3c0.4-0.6,0.7-1.4,0.7-2.4c0-1.2-0.3-2-0.9-2.6
		c-0.8-0.8-2.1-1.3-4.2-1.3H115v13h4.4V18.9z M119.5,13.7h5.1c0.7,0,1.2,0.1,1.4,0.5c0.1,0.2,0.1,0.4,0.1,0.7c0,0.2,0,0.5-0.1,0.7
		c-0.2,0.3-0.6,0.5-1.3,0.5h-5.2V13.7z"/>
	<path class="st0" d="M110.6,39.8c0-3-1.9-4.5-6.3-5c-0.7-0.1-2.8-0.3-4.1-0.4c-3.4-0.4-4.4-0.6-4.4-1.4c0-0.8,0.8-1.1,3.9-1.1
		c2.2,0,3.4,0.4,3.9,1c0.2,0.3,0.3,0.5,0.3,0.8h6.2c-0.1-0.5-0.3-1.3-0.6-1.9c-1.1-2.2-3.8-3.9-9.7-3.9c-6.6,0-10.1,2.3-10.1,5.3
		c0,2.9,2,4.6,7.5,5.1c0.6,0.1,2,0.2,3,0.3l0.1,0l0,0l0,0l0.6,0.1c2.9,0.3,3.7,0.5,3.7,1.4c0,0.8-0.8,1.3-3.9,1.3
		c-2.5,0-3.9-0.4-4.4-1c-0.2-0.3-0.4-0.6-0.4-0.9h-6.2c0.1,0.4,0.2,1.1,0.4,1.7c1.1,2.4,3.8,4.2,10.3,4.2
		C107.1,45.3,110.6,43.4,110.6,39.8z"/>
	<path class="st0" d="M66.4,43.3c0.6-0.8,1-1.9,1-3.1c0-1-0.3-1.9-0.8-2.6c-0.6-0.8-1.8-1.4-3-1.6c0.8-0.1,1.6-0.5,2.1-1.1
		c0.6-0.7,0.8-1.6,0.8-2.7c0-1.1-0.3-2.1-1.1-2.8c-0.8-0.8-2.3-1.4-4.7-1.4H46v17h15.1C63.5,45,65.4,44.5,66.4,43.3z M51.7,31.9h6.6
		c0.8,0,1.4,0.1,1.7,0.4c0.3,0.2,0.4,0.6,0.4,1c0,0.4-0.1,0.8-0.3,1c-0.3,0.3-0.9,0.4-1.6,0.4h-6.8V31.9z M61.1,40.7
		c-0.3,0.3-1,0.5-2,0.5h-7.4v-2.8h7.4c1,0,1.5,0.1,1.8,0.4c0.3,0.3,0.4,0.6,0.4,1C61.4,40.2,61.3,40.5,61.1,40.7z"/>
	<polygon class="st0" points="87.7,40.8 75.5,40.8 75.5,38.6 87.2,38.6 87.2,34.5 75.5,34.5 75.5,32.3 87.6,32.3 87.6,28.1 
		69.8,28.1 69.8,45 87.7,45 	"/>
	<polygon class="st0" points="111.3,32.3 118.5,32.3 118.5,45 124.4,45 124.4,32.3 131.6,32.3 131.6,28.1 111.3,28.1 	"/>
	<path class="st0" d="M131.1,57.7V55h-3.5v1.1h2.3v1.7c-0.2,0.7-0.8,1.3-1.9,1.3c-1.6,0-2.2-0.9-2.2-3.7c0-2.7,0.5-3.7,2.1-3.7
		c1.4,0,1.8,1,1.9,2.1h1.2c0-1.6-0.7-3.2-3.1-3.2c-2.7,0-3.3,2.1-3.3,4.7c0,3.4,1,4.7,3.2,4.7c1.3,0,1.9-0.6,2.2-1l0.1,0.9h1V60
		l0-0.2C131.1,59.4,131.1,58.5,131.1,57.7z"/>
	<path class="st0" d="M47.2,50.9l-2.9,9.2h1.2l0.7-2.3h3.3l0.7,2.3h1.2l-2.7-9.2H47.2z M46.6,56.7c0,0,1.2-3.7,1.2-3.8
		c0-0.1,0.2-0.9,0.2-0.9l0.1,0.6l0.1,0.3c0,0.1,1.1,3.8,1.1,3.8H46.6z"/>
	<path class="st0" d="M58.5,58.4c0-0.3-1.5-7.6-1.5-7.6h-1.4c0,0-1.5,7.3-1.5,7.6c0-0.3-1.7-7.6-1.7-7.6h-1.3l2.2,9.2h1.4
		c0,0,1.6-7.2,1.6-7.5c0,0.3,1.5,7.5,1.5,7.5h1.4l2.2-9.2h-1.1C60.2,50.9,58.5,58.2,58.5,58.4z"/>
	<path class="st0" d="M65.3,50.9h-1.5L61,60.1h1.2l0.7-2.3h3.3l0.7,2.3H68L65.3,50.9z M63.2,56.7c0,0,1.2-3.7,1.2-3.8
		c0-0.1,0.2-0.9,0.2-0.9l0.1,0.5l0.1,0.4c0,0.1,1.1,3.8,1.1,3.8H63.2z"/>
	<path class="st0" d="M74.7,53.5c0-1.9-0.8-2.6-2.2-2.6h-3.6v9.2h1.2v-4h2.2l1.6,4h1.3l-1.8-4.2C74.1,55.6,74.7,55.1,74.7,53.5z
		 M72.4,55h-2.3v-3.1h2.2c0.8,0,1.2,0.4,1.2,1.5C73.5,54.5,73.3,55,72.4,55z"/>
	<path class="st0" d="M79.4,50.9h-3.1v9.2h3.2c1.2,0,1.9-0.4,2.4-1c0.5-0.7,0.6-1.5,0.6-3.7c0-2-0.1-2.8-0.6-3.5
		C81.4,51.2,80.5,50.9,79.4,50.9z M80.8,58.4c-0.3,0.4-0.9,0.6-1.6,0.6h-1.7v-7h1.7c0.7,0,1.3,0.2,1.6,0.6c0.3,0.5,0.4,1.3,0.4,2.7
		C81.2,57.1,81.1,57.9,80.8,58.4z"/>
	<path class="st0" d="M93,58.4c0-0.3-1.5-7.6-1.5-7.6h-1.4c0,0-1.5,7.3-1.5,7.6c0-0.3-1.7-7.6-1.7-7.6h-1.3l2.2,9.2h1.4
		c0,0,1.6-7.2,1.6-7.5c0,0.3,1.5,7.5,1.5,7.5h1.4l2.2-9.2h-1.1C94.7,50.9,93,58.2,93,58.4z"/>
	<rect x="96.7" y="50.9" class="st0" width="1.2" height="9.2"/>
	<polygon class="st0" points="101,50.9 99.6,50.9 99.6,60.1 100.7,60.1 100.7,52.9 104.1,60.1 105.5,60.1 105.5,50.9 104.3,50.9 
		104.3,57.9 	"/>
	<polygon class="st0" points="111.9,57.9 108.5,50.9 107.1,50.9 107.1,60.1 108.2,60.1 108.2,52.9 111.7,60.1 113,60.1 113,50.9 
		111.9,50.9 	"/>
	<rect x="114.6" y="50.9" class="st0" width="1.2" height="9.2"/>
	<polygon class="st0" points="118.7,52.9 122.1,60.1 123.4,60.1 123.4,50.9 122.3,50.9 122.3,57.9 118.9,50.9 117.5,50.9 
		117.5,60.1 118.7,60.1 	"/>
	<polygon class="st0" points="59.3,78.2 58,74.1 56.7,78.2 52.4,78.2 55.9,80.8 54.5,84.9 58,82.3 61.5,84.9 60.2,80.8 63.7,78.2 	
		"/>
	<polygon class="st0" points="74.8,78.2 73.4,74.1 72,78.2 67.6,78.2 71.2,80.8 69.8,84.9 73.4,82.3 77,84.9 75.6,80.8 79.2,78.2 	
		"/>
	<polygon class="st0" points="90,78.2 88.7,74.1 87.3,78.2 82.9,78.2 86.5,80.8 85.1,84.9 88.7,82.3 92.2,84.9 90.9,80.8 94.4,78.2 
			"/>
	<polygon class="st0" points="105.3,78.2 103.9,74.1 102.6,78.2 98.2,78.2 101.7,80.8 100.4,84.9 103.9,82.3 107.5,84.9 106.1,80.8 
		109.7,78.2 	"/>
	<polygon class="st0" points="120.6,78.2 119.3,74.1 118,78.2 113.7,78.2 117.1,80.8 115.8,84.9 119.3,82.3 122.8,84.9 121.5,80.8 
		124.9,78.2 	"/>
	<path class="st0" d="M10.7,42.5c2.5-0.3,4.5-2.4,5.7-4.2c1.3-1.9,2.7-4.3,2.7-6.9c-2.7-0.3-4.9,1.5-6.4,3.2
		c-1.6,1.7-2.5,4.5-2.2,7.1c-0.6-2.6-2-5.1-3.6-7c-1.5-1.8-3.6-4.1-6.2-4.2c-0.3,3.3,1,6.5,3.2,9C5.5,41.4,8,43,10.7,42.5z"/>
	<path class="st0" d="M5.8,51.2c2.4,1.6,5.4,3.1,8.4,2c2.5-0.9,4.1-3.4,5.1-5.8c1-2.5,1.7-5.3,1.3-8c-2.8,0.2-5.1,2.2-6.3,4.7
		c-1.3,2.5-1.5,5.6-0.5,8.2c-1.5-2.7-3.6-5-5.8-7c-2-1.9-5-3.8-8-3.5C0.6,45.4,2.8,49.2,5.8,51.2z"/>
	<path class="st0" d="M20.5,63c2.4-1.4,3.3-4.4,3.7-7c0.4-2.8,0.4-5.8-0.7-8.4c-2.8,0.8-4.7,3.3-5.3,6c-0.7,2.9-0.1,5.9,1.5,8.4
		c-2.1-2.5-5-4.5-7.7-5.9c-2.6-1.4-5.9-3-9-2c1.5,3.7,4.8,7.2,8.4,8.6C14.1,63.8,17.6,64.9,20.5,63z"/>
	<path class="st0" d="M30,72.1c2.1-2.1,2.1-5.4,1.7-8.1c-0.4-3-1.3-6.2-3.1-8.6c-2.7,1.4-3.9,4.4-3.9,7.3c0.1,3.2,1.8,6.4,4.2,8.6
		c-3-2.1-6.6-3.7-10-4.7l-0.2,0c-3-0.9-6.8-1.9-9.8-0.3c2.5,3.8,7.2,6.6,11.3,7.4C23.4,74.3,27.4,74.8,30,72.1z"/>
	<path class="st0" d="M36.4,62.6c-2.7,2.3-2.4,5.6-1.6,8.5c0.9,3.4,4.2,6.3,7.6,8c-3.9-1.5-8.2-2.3-12.3-2.6l-0.4,0
		c-3.3-0.2-7.6-0.5-10.2,1.9c4,3.4,9.6,5.3,14.5,5.2c3.3-0.1,7.9-0.5,9.7-3.9c1.5-2.9,0-6.3-1.2-8.8C41.2,67.9,39.2,64.8,36.4,62.6z
		"/>
	<path class="st0" d="M159.3,15.2c-2.1-1-4.9-2-7.4-0.7c1.3,2.4,3.6,4.3,5.8,5.6c2,1.1,4.6,2.5,7.2,1.9c2.8-0.4,4.1-3.2,4.9-5.3
		c1-2.9,0.3-6.8-1.4-9.6c-2.4,1-3.2,4-3.7,6.2c-0.6,2.4-0.6,5.3,0,7.8C163.6,18.4,161.6,16.2,159.3,15.2z"/>
	<path class="st0" d="M166.4,31.3c-0.3-2.6-1.8-5.2-3.8-6.6c-1.9-1.3-4.4-2.8-7-2c0.7,2.5,2.4,4.8,4.3,6.4c1.8,1.5,4,3.2,6.6,3.1
		c2.8,0.1,4.8-2.3,6-4.2c1.7-2.5,2-6.3,1-9.4c-2.6,0.5-4.1,3.2-5.1,5.2C167.1,26,166.4,28.7,166.4,31.3z"/>
	<path class="st0" d="M169.3,34.7c-1.6,1.9-3,4.4-3.6,7c0.3-2.6-0.6-5.3-2.2-7.1c-1.5-1.7-3.7-3.5-6.4-3.2c0.1,2.6,1.4,5.1,2.7,6.9
		c1.3,1.7,3.2,3.9,5.7,4.2c2.6,0.4,5.2-1.2,6.9-3.1c2.1-2.4,3.4-5.7,3.2-9C172.9,30.6,170.9,32.9,169.3,34.7z"/>
	<path class="st0" d="M161.9,44c-1.2-2.4-3.5-4.4-6.3-4.7c-0.5,2.7,0.2,5.6,1.3,8c1,2.3,2.6,4.9,5.1,5.8c3.1,1.2,6-0.4,8.4-2
		c3-2,5.3-5.8,5.8-9.4c-3-0.4-5.9,1.6-8,3.4c-2.3,2-4.4,4.3-5.8,7C163.4,49.5,163.2,46.5,161.9,44z"/>
	<path class="st0" d="M164.2,56.1c-2.7,1.4-5.6,3.4-7.7,5.9c1.6-2.4,2.2-5.5,1.5-8.4c-0.6-2.7-2.5-5.2-5.3-6
		c-1.2,2.6-1.2,5.7-0.8,8.4c0.4,2.6,1.3,5.5,3.7,7c2.9,1.9,6.3,0.8,9.1-0.4c3.6-1.4,6.9-4.9,8.4-8.6
		C170.1,53.1,166.9,54.7,164.2,56.1z"/>
	<path class="st0" d="M157.4,66.6l-0.2,0c-3.4,1-7,2.5-10,4.7c2.4-2.2,4.2-5.4,4.2-8.6c0.1-2.9-1.2-6-3.8-7.3
		c-1.9,2.5-2.8,5.6-3.2,8.6c-0.4,2.7-0.3,6.1,1.7,8.1c2.6,2.7,6.6,2.1,9.7,1.6c4.2-0.8,8.8-3.6,11.3-7.4
		C164.2,64.6,160.4,65.7,157.4,66.6z"/>
	<path class="st0" d="M146.5,76.5l-0.4,0c-4.1,0.3-8.4,1.1-12.3,2.6c3.4-1.7,6.7-4.6,7.6-8c0.8-2.9,1.1-6.2-1.6-8.5
		c-2.8,2.2-4.7,5.2-6.2,8.2c-1.2,2.5-2.7,5.9-1.2,8.8l0,0c1.9,3.4,6.4,3.8,9.7,3.9c5,0.1,10.6-1.8,14.5-5.2
		C154.1,76,149.8,76.2,146.5,76.5z"/>
</g>
</svg>
