<?xml version="1.0" encoding="utf-8"?>
<!-- Generator: Adobe Illustrator 25.4.1, SVG Export Plug-In . SVG Version: 6.00 Build 0)  -->
<svg version="1.1" id="logo-23" xmlns="http://www.w3.org/2000/svg" xmlns:xlink="http://www.w3.org/1999/xlink" x="0px" y="0px"
	 viewBox="0 0 130 47" style="enable-background:new 0 0 130 47;" xml:space="preserve">
<style type="text/css">
	.st0{fill:#9E9E9E;}
	.st1{fill-rule:evenodd;clip-rule:evenodd;fill:#9E9E9E;}
</style>
<path class="st0" d="M13,20.2c0,0.9-0.1,1.9-0.1,3.3c0,1.3,0,2.4,0.1,3.3c0,0.9,0.1,1.5,0.2,2.1c0.1,0.5,0.3,0.9,0.5,1.1
	c0.2,0.2,0.5,0.3,0.9,0.3c0.4,0,0.7-0.1,0.9-0.3c0.2-0.2,0.4-0.6,0.5-1.1c0.1-0.5,0.2-1.2,0.2-2.1c0-0.9,0.1-2,0.1-3.3
	c0-1.3,0-2.4-0.1-3.3c0-0.9-0.1-1.6-0.2-2.1c-0.1-0.5-0.3-0.9-0.5-1.1c-0.2-0.2-0.5-0.3-0.9-0.3c-0.4,0-0.7,0.1-0.9,0.3
	c-0.2,0.2-0.4,0.6-0.5,1.1C13.1,18.7,13,19.4,13,20.2z"/>
<path class="st1" d="M13.9,3.2C7.3,3.3,2.1,8.8,2.2,15.4l0.1,8.1l-0.1,8.1c-0.1,6.6,5.1,12,11.7,12.2l8.1,0.2l8.1-0.2
	c6.6-0.1,11.8-5.6,11.7-12.2l-0.1-8.1l0.1-8.1c0.1-6.6-5.1-12-11.7-12.2L22,3L13.9,3.2z M22.3,33.8l-3.1,2.7l-2.8-3
	c-0.2,0-0.4,0.1-0.7,0.1c-0.2,0-0.4,0.1-0.7,0.1h-0.5c-1.3,0-2.4-0.2-3.3-0.5c-0.9-0.3-1.6-0.9-2.2-1.7c-0.5-0.8-0.9-1.9-1.2-3.1
	c-0.2-1.3-0.4-2.9-0.4-4.7c0-1.8,0.1-3.4,0.4-4.6c0.2-1.3,0.6-2.3,1.2-3.1c0.5-0.8,1.3-1.4,2.2-1.8c0.9-0.4,2-0.6,3.3-0.6
	s2.4,0.2,3.3,0.6c0.9,0.4,1.6,1,2.2,1.8c0.5,0.8,0.9,1.9,1.2,3.1c0.2,1.3,0.4,2.8,0.4,4.6c0,1.9-0.1,3.5-0.4,4.8
	c-0.3,1.3-0.7,2.4-1.3,3.2L22.3,33.8z M30.9,20.8v-1.1c0-1.1-0.1-1.9-0.3-2.3c-0.2-0.4-0.6-0.6-1.1-0.6c-0.4,0-0.7,0.1-0.9,0.3
	c-0.2,0.2-0.4,0.6-0.5,1.1c-0.1,0.5-0.2,1.2-0.2,2.1c0,0.9-0.1,1.9-0.1,3.3c0,1.3,0,2.4,0.1,3.3c0,0.9,0.1,1.5,0.2,2.1
	c0.1,0.5,0.3,0.9,0.5,1.1c0.2,0.2,0.5,0.3,0.9,0.3c0.3,0,0.6-0.1,0.8-0.2c0.2-0.2,0.4-0.4,0.5-0.8c0.1-0.4,0.2-0.8,0.2-1.4
	c0.1-0.6,0.1-1.4,0.1-2.3H36v1.4c0,1.4-0.2,2.5-0.5,3.4c-0.4,0.9-0.8,1.6-1.4,2.1c-0.6,0.5-1.3,0.8-2.1,1c-0.8,0.2-1.6,0.3-2.4,0.3
	c-1.4,0-2.6-0.2-3.5-0.5c-0.9-0.3-1.6-0.9-2.1-1.7c-0.5-0.8-0.9-1.9-1.1-3.1c-0.2-1.3-0.3-2.9-0.3-4.7c0-1.9,0.1-3.4,0.3-4.7
	c0.2-1.3,0.6-2.3,1.2-3.1c0.5-0.8,1.3-1.4,2.2-1.7c0.9-0.4,2-0.5,3.3-0.5c1.1,0,2.1,0.1,2.9,0.4c0.8,0.3,1.4,0.7,1.9,1.3
	c0.5,0.5,0.9,1.2,1.1,1.9c0.2,0.7,0.4,1.6,0.4,2.5v1.2H30.9z"/>
<path class="st1" d="M65.8,16.9l4.5,4.6l4.5-4.6h7.7l-8.3,7.9l8.3,7.9h-7.7l-4.5-4.6l-4.5,4.6H58l8.3-7.9L58,16.9H65.8z M65.3,24.9
	l-9.1-8.6h9.8l4.2,4.3l4.2-4.3h9.4v0h16c3.7,0,6.8,3,6.7,6.7c0,1.3-0.4,2.5-1.1,3.6c-0.5,0.8-1.2,1.5-2,2l3.4,4.4v-2.8
	c0-2.2,1.7-3.6,3.6-4.6c1.9-1,4.4-1.5,6.4-2l0,0l0,0c1.3-0.3,2.3-0.6,3.1-0.9c0.4-0.1,0.6-0.3,0.8-0.4c0,0,0,0,0,0
	c0,0-0.1-0.1-0.3-0.2c-0.4-0.2-1.1-0.3-2.2-0.3c-1.1,0-2.1,0.1-2.8,0.3c-0.3,0.1-0.5,0.2-0.6,0.4c-0.1,0.1-0.2,0.2-0.1,0.4l0,0.7
	h-7.6v-0.7c0-1.4,0.3-2.6,0.8-3.6c0.6-1,1.4-1.7,2.4-2.2c2-1,4.7-1.3,7.7-1.3c3.1,0,5.6,0.4,7.5,1.3c0.9,0.5,1.7,1.1,2.2,1.9
	c0.5,0.8,0.8,1.8,0.8,2.8c0,2-1.2,3.3-2.7,4.1c-1.4,0.8-3.2,1.3-4.7,1.6h7.2v5.9h-20.9l0,0h-8.4l-3-3.9h-4.5v3.9h-7.3l0,0h-9.8
	l-4.2-4.3l-4.2,4.3h-9.8L65.3,24.9z M83.8,33.2V16.6l-8.7,8.3L83.8,33.2z M96.2,28.9l3,3.9h6.6l-3.5-4.4c0.2-0.1,0.4-0.2,0.6-0.3
	c0.8-0.5,1.4-1.1,1.9-1.8c0.6-1,1-2.1,1-3.2c0-3.3-2.7-6-6-6H84.5v15.9h6.2v-3.9H96.2z M117.3,28.2c0.2-0.3,0.6-0.5,1.1-0.7
	c0.6-0.2,1.4-0.5,2.3-0.7c3.1-0.7,6.9-1.8,6.9-5.1c0-3.9-3.6-5.3-9.7-5.3c-5.7,0-9.8,0.9-10.2,5.7c0,0.2,0,0.5,0,0.7h6.2
	c0,0,0-0.1,0-0.1c0-1.4,2-1.7,4.2-1.8c2.2,0,3.2,0.5,3.2,1.2c0,0.8-2,1.3-4.4,1.9l-0.1,0c-4.1,1-9.4,2.3-9.4,5.9v2.7h19.9v-4.5
	H117.3z M120.8,22.3C120.8,22.3,120.8,22.3,120.8,22.3C120.8,22.3,120.8,22.3,120.8,22.3z M98.9,22.9c0-0.4-0.3-0.7-0.7-0.7h-6.9
	v1.3h6.9c0.2,0,0.3-0.1,0.5-0.2C98.9,23.2,98.9,23.1,98.9,22.9z M99.6,22.9c0-0.8-0.6-1.4-1.4-1.4h-7.6v2.7h7.6c0.4,0,0.7-0.1,1-0.4
	C99.5,23.6,99.6,23.3,99.6,22.9z"/>
<path class="st0" d="M58.6,44.2h3v-4.1l3,4.1H66l3-4.1v4.1h3v-7.6h-3.7l-3,3.8l-3-3.8h-3.7V44.2z"/>
<path class="st0" d="M78.2,36.4c-2.9,0-5.2,0.8-5.2,3.7v0.6c0,2.9,2.3,3.7,5.2,3.7c2.9,0,5.2-0.8,5.2-3.7v-0.6
	C83.4,37.3,81.1,36.4,78.2,36.4z M80.4,40.5c0,1.2-1,1.5-2.2,1.5c-1.2,0-2.2-0.2-2.2-1.5v-0.2c0-1.2,1-1.5,2.2-1.5
	c1.2,0,2.2,0.2,2.2,1.5V40.5z"/>
<path class="st0" d="M91.7,40.4c0,0.8-0.4,1.4-1.2,1.4h-3.3v-2.8h3.3C91.3,39.1,91.7,39.7,91.7,40.4z M84.3,36.6v7.6H91
	c2.1,0,3.6-1.7,3.6-3.8c0-2.1-1.5-3.8-3.6-3.8H84.3z"/>
<path class="st0" d="M102.9,40.5c0,1.3-1,1.5-2.2,1.5c-1.2,0-2.2-0.2-2.2-1.5v-3.9h-3v4.1c0,2.9,2.3,3.7,5.2,3.7
	c2.9,0,5.2-0.8,5.2-3.7v-4.1h-3V40.5z"/>
<path class="st0" d="M107.2,36.6v7.6h8.9v-2.4h-5.9v-5.2H107.2z"/>
<path class="st0" d="M117.2,44.3h8.9v-2h-5.9v-1h5.9v-1.8h-5.9v-1h5.9v-1.9h-8.9V44.3z"/>
<path class="st0" d="M60.3,7.6V6h4.4c0.2,0,0.4,0.1,0.5,0.2c0.2,0.2,0.2,0.3,0.2,0.6c0,0.2-0.1,0.4-0.2,0.6
	c-0.2,0.2-0.3,0.2-0.5,0.2H60.3z M56.7,3.2v9.4h3.6v-2.3h5.3c1.9,0,3.5-1.6,3.5-3.6c0-1.9-1.6-3.6-3.5-3.6H56.7z"/>
<path class="st0" d="M76.2,3c-3.5,0-6.3,1-6.3,4.6v0.7c0,3.6,2.8,4.6,6.3,4.6c3.5,0,6.3-1,6.3-4.6V7.6C82.5,4,79.7,3,76.2,3z
	 M78.9,8.1c0,1.5-1.2,1.8-2.7,1.8c-1.5,0-2.7-0.3-2.7-1.8V7.8c0-1.5,1.2-1.8,2.7-1.8c1.5,0,2.7,0.3,2.7,1.8V8.1z"/>
<path class="st0" d="M96.6,9.2l-2.1-6h-4.1l-2.1,6l-2.1-6h-4.1l4.1,9.4h4.3l2-4.7l2,4.7h4.3l4.1-9.4h-4.1L96.6,9.2z"/>
<path class="st0" d="M103.1,12.7h10.8v-2.4h-7.2V9h7.2V6.9h-7.2V5.7h7.2V3.2h-10.8V12.7z"/>
<path class="st0" d="M115.8,3.2v9.4h3.6v-2.3h3.2l1.7,2.3h3.8l-2-2.6c0.6-0.3,1.1-0.7,1.5-1.3c0.4-0.6,0.6-1.2,0.6-1.9
	c0-1.9-1.6-3.6-3.5-3.6H115.8z M123.8,6c0.4,0,0.8,0.4,0.8,0.8c0,0.2-0.1,0.4-0.2,0.6c-0.2,0.2-0.3,0.2-0.6,0.2h-4.4V6H123.8z"/>
</svg>
