<?xml version="1.0" encoding="utf-8"?>
<!-- Generator: Adobe Illustrator 25.4.1, SVG Export Plug-In . SVG Version: 6.00 Build 0)  -->
<svg version="1.1" id="logo-32" xmlns="http://www.w3.org/2000/svg" xmlns:xlink="http://www.w3.org/1999/xlink" x="0px" y="0px"
	 viewBox="0 0 150 57" style="enable-background:new 0 0 150 57;" xml:space="preserve">
<style type="text/css">
	.st0{fill:#9E9E9E;}
	.st1{fill-rule:evenodd;clip-rule:evenodd;fill:#9E9E9E;}
</style>
<path class="st0" d="M30.6,28.9c0-2.1,1.2-3.5,3.1-3.5s3.1,1.4,3.1,3.5c0,2.1-1.2,3.5-3.1,3.5S30.6,31,30.6,28.9z"/>
<path class="st0" d="M46.6,25.3c-1.8,0-3,1.4-3,3.3c0,1.9,1.2,3.4,3,3.4c2,0,3.3-1.5,3.3-3.4C49.9,26.7,48.6,25.3,46.6,25.3z"/>
<path class="st0" d="M57.1,28.9c0-2.1,1.2-3.5,3.1-3.5s3.1,1.4,3.1,3.5c0,2.1-1.2,3.5-3.1,3.5S57.1,31,57.1,28.9z"/>
<path class="st0" d="M76.2,28.9c0-2.1,1.3-3.5,3.3-3.5c2,0,3.2,1.5,3.2,3.5s-1.2,3.5-3.2,3.5C77.5,32.4,76.2,31,76.2,28.9z"/>
<path class="st1" d="M75,53.4c39.8,0,72.1-11.3,72.1-25.2S114.8,2.9,75,2.9C35.2,2.9,2.9,14.2,2.9,28.1S35.2,53.4,75,53.4z
	 M25.9,34.7V17.3h-2.9v17.4H25.9z M27.7,28.9c0,3.6,2.4,6.1,6,6.1s6-2.5,6-6.1s-2.4-6.1-6-6.1S27.7,25.4,27.7,28.9z M46.1,34.5
	c-3.3,0-5.4-2.4-5.4-5.8c0-3.4,2.2-5.9,5.5-5.9c1.7,0,3.2,0.7,3.9,1.9l0.2-1.6h2.5v11c0,3.8-2.4,6.3-6.1,6.3c-3.2,0-5.5-2-5.9-5h2.9
	c0.2,1.5,1.4,2.4,3.2,2.4c2,0,3.2-1.3,3.2-3.2v-2C49.3,33.8,47.8,34.5,46.1,34.5z M54.2,28.9c0,3.6,2.4,6.1,6,6.1s6-2.5,6-6.1
	s-2.4-6.1-6-6.1S54.2,25.4,54.2,28.9z M71.1,19.1c0,1-0.8,1.7-1.7,1.7c-1,0-1.7-0.7-1.7-1.7c0-0.9,0.7-1.7,1.7-1.7
	C70.3,17.4,71.1,18.1,71.1,19.1z M70.8,23.2v11.6h-2.9V23.2H70.8z M73.3,40.1h2.8v-6.9c0.7,1.2,2.3,1.9,4,1.9c3.4,0,5.5-2.6,5.4-6.2
	c-0.1-3.6-2.2-6-5.4-6c-1.8,0-3.4,0.8-4.1,2.1l-0.2-1.8h-2.6V40.1z M90.9,35c-2.8,0-4.5-1.5-4.6-3.8h2.6c0,1,0.7,1.6,2,1.6
	c1.1,0,1.9-0.4,1.9-1.3c0-0.7-0.5-1-1.2-1.2l-2-0.5c-2.2-0.6-3.1-1.8-3.1-3.3c0-2.2,1.9-3.6,4.3-3.6c2.5,0,4.2,1.4,4.3,3.7h-2.6
	c0-1-0.7-1.6-1.8-1.6c-1,0-1.7,0.6-1.7,1.4c0,0.7,0.6,1.1,1.5,1.3l2,0.5c1.9,0.5,2.9,1.6,2.9,3.2C95.5,33.6,93.6,35,90.9,35z
	 M101.4,35c1.6,0,3.1-0.7,3.8-1.8l0.2,1.5h2.7V23.2h-2.9v6.1c0,2.1-0.8,3.2-2.7,3.2c-1.5,0-2.5-0.7-2.5-3.1v-6.2h-2.9v7.2
	C97.1,33.1,98.7,35,101.4,35z M113.4,28.1v6.6h-2.9V23.2h2.6l0.1,1.3c0.7-1,1.9-1.7,3.3-1.7c1.9,0,3.2,0.8,3.8,2.2
	c0.6-1.4,1.9-2.2,3.7-2.2c2.8,0,4.3,1.7,4.3,4.3v7.6h-2.8v-6.9c0-1.6-0.9-2.5-2.3-2.5c-1.4,0-2.4,0.9-2.4,2.8v6.6h-2.8v-6.9
	c0-1.6-0.9-2.5-2.2-2.5C114.5,25.3,113.4,26.2,113.4,28.1z"/>
</svg>
