<?xml version="1.0" encoding="utf-8"?>
<!-- Generator: Adobe Illustrator 25.4.1, SVG Export Plug-In . SVG Version: 6.00 Build 0)  -->
<svg version="1.1" id="logo-4" xmlns="http://www.w3.org/2000/svg" xmlns:xlink="http://www.w3.org/1999/xlink" x="0px" y="0px"
	 viewBox="0 0 100 51" style="enable-background:new 0 0 100 51;" xml:space="preserve">
<style type="text/css">
	.st0{fill:#9E9E9E;}
</style>
<path class="st0" d="M2.6,29.5h2.8v13.9H2.6V29.5z"/>
<path class="st0" d="M7.1,38.6c0-1,0.3-2,0.8-2.8c0.6-0.8,1.3-1.5,2.3-1.9c0.9-0.4,1.9-0.5,2.9-0.3s1.9,0.7,2.6,1.4
	c0.7,0.7,1.2,1.6,1.4,2.6c0.2,1,0.1,2-0.3,2.9c-0.4,0.9-1,1.7-1.9,2.3c-0.8,0.6-1.8,0.9-2.8,0.9c-0.7,0-1.3-0.1-1.9-0.4
	c-0.6-0.3-1.2-0.6-1.6-1.1c-0.5-0.5-0.8-1-1.1-1.6C7.2,40,7.1,39.3,7.1,38.6z M14.3,38.6c0-0.4-0.1-0.8-0.4-1.2
	c-0.2-0.4-0.6-0.6-1-0.8c-0.4-0.2-0.8-0.2-1.3-0.1c-0.4,0.1-0.8,0.3-1.1,0.6c-0.3,0.3-0.5,0.7-0.6,1.1c-0.1,0.4,0,0.9,0.1,1.3
	c0.2,0.4,0.4,0.7,0.8,1c0.4,0.2,0.8,0.4,1.2,0.4c0.3,0,0.6,0,0.9-0.2c0.3-0.1,0.5-0.3,0.7-0.5c0.2-0.2,0.4-0.5,0.5-0.7
	C14.3,39.2,14.3,38.9,14.3,38.6z"/>
<path class="st0" d="M28.5,33.9v9c0,3.2-2.5,4.6-5,4.6c-0.9,0.1-1.8-0.1-2.6-0.5s-1.5-1-1.9-1.8l2.4-1.4c0.2,0.4,0.5,0.7,0.9,0.9
	c0.4,0.2,0.8,0.3,1.2,0.3c0.3,0,0.6,0,0.9-0.1c0.3-0.1,0.5-0.2,0.7-0.4c0.2-0.2,0.4-0.4,0.5-0.7c0.1-0.3,0.1-0.6,0.1-0.8v-0.9
	c-0.3,0.4-0.8,0.7-1.2,1s-1,0.3-1.5,0.3c-1.3,0-2.5-0.5-3.4-1.4c-0.9-0.9-1.4-2.1-1.4-3.4s0.5-2.5,1.4-3.4c0.9-0.9,2.1-1.4,3.4-1.4
	c0.5,0,1.1,0.1,1.5,0.3c0.5,0.2,0.9,0.5,1.2,0.9v-0.9L28.5,33.9z M25.7,38.5c0-0.5-0.1-0.9-0.3-1.3c-0.2-0.4-0.6-0.7-1-0.9
	c-0.4-0.2-0.9-0.2-1.3-0.2c-0.5,0.1-0.9,0.3-1.2,0.6c-0.3,0.3-0.6,0.7-0.7,1.2c-0.1,0.4-0.1,0.9,0.1,1.3c0.2,0.4,0.5,0.8,0.8,1
	c0.4,0.3,0.8,0.4,1.3,0.4c0.3,0,0.6,0,0.9-0.1c0.3-0.1,0.5-0.3,0.8-0.5c0.2-0.2,0.4-0.5,0.5-0.7C25.7,39.1,25.8,38.8,25.7,38.5z"/>
<path class="st0" d="M30.2,38.6c0-1,0.3-2,0.8-2.8c0.6-0.8,1.3-1.5,2.3-1.9c0.9-0.4,1.9-0.5,2.9-0.3c1,0.2,1.9,0.7,2.6,1.4
	c0.7,0.7,1.2,1.6,1.4,2.6c0.2,1,0.1,2-0.3,2.9c-0.4,0.9-1,1.7-1.9,2.3c-0.8,0.6-1.8,0.9-2.8,0.9c-0.7,0-1.3-0.1-1.9-0.4
	c-0.6-0.3-1.2-0.6-1.6-1.1c-0.5-0.5-0.8-1-1.1-1.6C30.3,40,30.2,39.3,30.2,38.6z M37.4,38.6c0-0.4-0.1-0.8-0.4-1.2
	c-0.2-0.4-0.6-0.6-1-0.8c-0.4-0.2-0.8-0.2-1.3-0.1s-0.8,0.3-1.1,0.6c-0.3,0.3-0.5,0.7-0.6,1.1c-0.1,0.4,0,0.9,0.1,1.3
	c0.2,0.4,0.4,0.7,0.8,1c0.4,0.2,0.8,0.4,1.2,0.4c0.3,0,0.6,0,0.9-0.2c0.3-0.1,0.5-0.3,0.7-0.5c0.2-0.2,0.4-0.5,0.5-0.7
	C37.4,39.2,37.4,38.9,37.4,38.6L37.4,38.6z"/>
<path class="st0" d="M41.6,31.3c0-0.3,0.1-0.7,0.3-1c0.2-0.3,0.5-0.5,0.8-0.6c0.3-0.1,0.7-0.2,1-0.1c0.3,0.1,0.6,0.2,0.9,0.5
	c0.2,0.2,0.4,0.5,0.5,0.9c0.1,0.3,0,0.7-0.1,1c-0.1,0.3-0.4,0.6-0.6,0.8c-0.3,0.2-0.6,0.3-1,0.3c-0.5,0-0.9-0.2-1.2-0.5
	C41.8,32.2,41.6,31.8,41.6,31.3z M41.9,33.9h2.8v9.5h-2.8V33.9z"/>
<path class="st0" d="M57,38.6c0,0.6-0.1,1.3-0.3,1.9c-0.2,0.6-0.5,1.1-1,1.6c-0.4,0.5-0.9,0.8-1.5,1.1s-1.2,0.4-1.8,0.5
	c-0.5,0-1.1-0.1-1.5-0.3c-0.5-0.2-0.9-0.5-1.3-0.9v4.7h-2.8V33.9h2.8v0.9c0.4-0.4,0.8-0.7,1.3-0.9c0.5-0.2,1-0.3,1.5-0.3
	c0.6,0,1.2,0.2,1.8,0.5c0.6,0.3,1.1,0.6,1.5,1.1c0.4,0.5,0.7,1,1,1.6C57,37.4,57.1,38,57,38.6z M54.2,38.6c0-0.4-0.2-0.9-0.4-1.2
	c-0.3-0.4-0.6-0.6-1-0.8c-0.4-0.2-0.9-0.2-1.3-0.1c-0.4,0.1-0.8,0.3-1.1,0.6c-0.3,0.3-0.5,0.7-0.6,1.1c-0.1,0.4,0,0.9,0.1,1.3
	c0.2,0.4,0.4,0.8,0.8,1c0.4,0.3,0.8,0.4,1.2,0.4c0.3,0,0.6,0,0.9-0.1c0.3-0.1,0.6-0.3,0.8-0.5c0.2-0.2,0.4-0.5,0.5-0.8
	C54.2,39.3,54.2,39,54.2,38.6L54.2,38.6z"/>
<path class="st0" d="M65.9,40.6c0,2.2-1.9,3.1-4,3.1c-0.8,0.1-1.7-0.1-2.4-0.5c-0.7-0.4-1.3-1-1.7-1.8l2.5-1.4
	c0.1,0.3,0.3,0.6,0.6,0.8c0.3,0.2,0.6,0.3,1,0.3c0.7,0,1-0.2,1-0.6c0-1-4.7-0.5-4.7-3.8c0-2.1,1.8-3.1,3.8-3.1
	c0.7,0,1.5,0.2,2.1,0.5c0.7,0.4,1.2,0.9,1.6,1.5L63.2,37c-0.1-0.2-0.3-0.5-0.5-0.6s-0.5-0.2-0.8-0.2c-0.5,0-0.8,0.2-0.8,0.5
	C61.2,37.8,65.9,37,65.9,40.6z"/>
<path class="st0" d="M76.3,33.9v9.5h-2.8v-0.9c-0.3,0.4-0.7,0.7-1.2,0.9c-0.5,0.2-1,0.3-1.5,0.3c-1.9,0-3.6-1.4-3.6-3.9v-5.8H70v5.4
	c0,0.2,0,0.5,0.1,0.7c0.1,0.2,0.2,0.4,0.4,0.6c0.2,0.2,0.4,0.3,0.6,0.4c0.2,0.1,0.5,0.1,0.7,0.1c1,0,1.8-0.6,1.8-2v-5.2H76.3z"/>
<path class="st0" d="M92.7,37.6v5.8h-2.8v-5.6c0-0.9-0.5-1.6-1.4-1.6S87,36.9,87,38v5.4h-2.8v-5.6c0-0.9-0.5-1.6-1.4-1.6
	c-0.9,0-1.5,0.7-1.5,1.8v5.4h-2.8v-9.5h2.8v0.9c0.3-0.4,0.7-0.7,1.1-0.9c0.4-0.2,0.9-0.3,1.4-0.2c0.5,0,1,0.1,1.4,0.3
	c0.4,0.2,0.8,0.5,1.1,1c0.3-0.4,0.7-0.8,1.2-1s1-0.3,1.5-0.3C91.2,33.6,92.7,35.2,92.7,37.6z"/>
<path class="st0" d="M95.1,33.8c1.2,0,2.1-0.9,2.1-2.1s-0.9-2.1-2.1-2.1c-1.2,0-2.1,0.9-2.1,2.1S93.9,33.8,95.1,33.8z"/>
<path class="st0" d="M34.6,22.3c5.5,0,9.9-4.4,9.9-9.9c0-5.5-4.4-9.9-9.9-9.9s-9.9,4.4-9.9,9.9C24.7,17.9,29.2,22.3,34.6,22.3z"/>
<path class="st0" d="M56.8,22.3c5.5,0,9.9-4.4,9.9-9.9c0-5.5-4.4-9.9-9.9-9.9s-9.9,4.4-9.9,9.9C46.9,17.9,51.3,22.3,56.8,22.3z"/>
<path class="st0" d="M22.4,2.5H2.6v19.8h19.8V2.5z"/>
</svg>
