<?xml version="1.0" encoding="utf-8"?>
<!-- Generator: Adobe Illustrator 25.4.1, SVG Export Plug-In . SVG Version: 6.00 Build 0)  -->
<svg version="1.1" id="logo-18" xmlns="http://www.w3.org/2000/svg" xmlns:xlink="http://www.w3.org/1999/xlink" x="0px" y="0px"
	 viewBox="0 0 147 62" style="enable-background:new 0 0 147 62;" xml:space="preserve">
<style type="text/css">
	.st0{fill:#9E9E9E;}
	.st1{fill-rule:evenodd;clip-rule:evenodd;fill:#9E9E9E;}
</style>
<path class="st0" d="M73.7,20.5c0.6,0,1.1-0.1,1.1-0.7v-0.1c0-0.6-0.5-0.7-1.1-0.7c-0.6,0-1.1,0.1-1.1,0.7v0.1
	C72.6,20.3,73.1,20.4,73.7,20.5z"/>
<path class="st0" d="M51.6,19.2c0-0.2-0.1-0.3-0.3-0.3h-1.8v0.6h1.8c0.1,0,0.2,0,0.2-0.1C51.6,19.4,51.6,19.3,51.6,19.2z"/>
<path class="st0" d="M61.8,18.9l0.5,1.1h-1L61.8,18.9z"/>
<path class="st0" d="M85,18.9l0.5,1.1h-1L85,18.9z"/>
<path class="st0" d="M48.1,42.5l-0.8-1.7l-0.8,1.7H48.1z"/>
<path class="st0" d="M66.2,42c0,0.6-0.3,1-0.9,1h-2.4V41h2.4C65.9,41,66.2,41.4,66.2,42z"/>
<path class="st0" d="M72.3,40.8l0.8,1.7h-1.5L72.3,40.8z"/>
<path class="st0" d="M81.6,40.8c0.3,0,0.5,0.2,0.5,0.5c0,0.1,0,0.2-0.1,0.3c-0.1,0.1-0.2,0.1-0.3,0.1h-2.7v-1H81.6z"/>
<path class="st0" d="M90.4,42c0,0.6-0.3,1-0.9,1h-2.4V41h2.4C90.1,41,90.4,41.4,90.4,42z"/>
<path class="st0" d="M37.9,31.5l-2.8-6.4h-4.8v10.7h3.5V30l2.5,5.8h3.1L42,30v5.8h3.5V25.1h-4.6L37.9,31.5z"/>
<path class="st0" d="M59.7,35.8v-2.7H52v-1.4h7.4v-2.6H52v-1.4h7.6v-2.7H48.4v10.7H59.7z"/>
<path class="st0" d="M62.6,33.9c1.1,1.4,3,2.1,5.2,2.1c1.7,0,3-0.3,3.8-0.9c0.2-0.1,0.3-0.2,0.4-0.3l0.1,1h2.9v-6.3H68v2.3h3.8
	c0,0.1-0.1,0.3-0.2,0.4c-0.1,0.1-0.1,0.2-0.2,0.3c-0.4,0.5-1.4,0.9-2.8,0.9c-1.4,0-2.3-0.4-2.8-0.9c-0.3-0.4-0.5-1-0.5-1.9
	c0-0.9,0.2-1.6,0.6-2c0.5-0.6,1.4-0.9,2.8-0.9c1.2,0,2,0.3,2.4,0.6c0.2,0.2,0.4,0.5,0.5,0.7H75c0-0.1,0-0.3-0.1-0.4
	c-0.1-0.3-0.1-0.6-0.3-0.8c-0.8-1.7-2.8-2.7-6.2-2.7c-2.9,0-4.9,0.9-5.9,2.2c-0.7,0.9-1,2.1-1,3.3C61.6,31.9,62,33.1,62.6,33.9z"/>
<path class="st0" d="M65.8,30.5c0-0.9,0.2-1.4,0.4-1.7c0.4-0.5,1.1-0.7,2.4-0.7c1.1,0,1.8,0.3,2.1,0.5l0,0l0,0
	c0.1,0.1,0.2,0.2,0.2,0.3C71,29,71.1,29,71.1,29h-3.5v3.2h3.6c-0.1,0.1-0.4,0.3-0.8,0.5c-0.4,0.1-1,0.2-1.6,0.2
	c-1.3,0-2.1-0.3-2.5-0.8C65.9,31.8,65.8,31.4,65.8,30.5z"/>
<path class="st0" d="M84.4,29.1l-1,1.9h2L84.4,29.1z"/>
<path class="st1" d="M87.2,33.9l0.9,2h3.9l-5.4-10.7h-4.4l-5.7,10.7h3.9l1-2H87.2z M82.7,31.5l1.4-2.6l0.4-1l0.4,1l1.3,2.6H82.7z"/>
<path class="st1" d="M115.7,54.4L115.7,54.4c-0.1,0-0.2,0-0.2,0v0H32c-7.4,0-13.9-3.4-18.2-8.7h12.3v-1.6H12.6
	c-2-3-3.4-6.4-3.8-10.1h17.3v-1.6H8.7c0-0.5,0-0.9,0-1.4c0-3.1,0.6-6,1.7-8.7h15.8v-1.6H11c1.7-3.4,4.1-6.3,7.1-8.5h83.7
	c1-0.8,2.2-1.5,3.3-2.1c-0.3,0.2-0.6,0.3-0.9,0.5H20.5c3.4-1.9,7.3-3,11.5-3h83.5v0c0.1,0,0.2,0,0.2,0c12.9,0,23.4,10.5,23.4,23.4
	C139.1,43.9,128.6,54.4,115.7,54.4z M124.4,42c1-3.2,1.7-6.9,1.7-11c0-3.8-0.5-7.3-1.5-10.3c-0.1-0.4-0.2-0.7-0.4-1.1
	c-0.2-0.6-0.4-1.2-0.7-1.7c-0.3-0.7-0.7-1.4-1-2.1c-1.7-3-3.7-4.7-5.5-5.2v7.3h4.8c0.4,0.9,0.8,1.8,1.1,2.8h-5.9v8.9h7.4
	c0,0.5,0,0.9,0,1.4s0,0.9,0,1.4h-7.4v8.9h5.9c-0.3,1-0.7,1.9-1.1,2.8h-4.8v7.3c1.8-0.5,3.8-2.2,5.5-5.2c0.4-0.6,0.7-1.3,1-2.1
	C123.9,43.4,124.2,42.7,124.4,42z M127.6,20.7c0.7,2.7,1.2,5.7,1.3,8.9h7.4c-0.2-3.2-1.2-6.2-2.7-8.9H127.6z M131.6,17.9h-5
	c-0.9-2.4-2-4.4-3.3-6C126.6,13.1,129.4,15.2,131.6,17.9z M114.3,10.6v7.3h-6.5c0.3-0.7,0.7-1.4,1-2.1
	C110.6,12.8,112.5,11.2,114.3,10.6z M108.2,11.9c-1.3,1.6-2.4,3.7-3.3,6h-5C102,15.2,104.9,13.1,108.2,11.9z M103.9,20.7h-9v1.6h2.2
	c-1.1,2.3-1.7,4.7-1.9,7.3h7.4C102.7,26.4,103.1,23.4,103.9,20.7z M114.3,20.7h-7.5c-0.8,2.6-1.3,5.6-1.4,8.9h8.9V20.7z M128.9,32.4
	c-0.1,3.2-0.6,6.2-1.3,8.9h6c1.5-2.6,2.5-5.7,2.7-8.9H128.9z M106.8,41.3c-0.8-2.6-1.3-5.6-1.4-8.9h8.9v8.9H106.8z M103.9,41.3
	c-0.7-2.7-1.2-5.7-1.3-8.9h-7.4c0.2,3.2,1.2,6.2,2.7,8.9H103.9z M126.6,44.1c-0.9,2.4-2,4.4-3.3,6c3.3-1.3,6.1-3.4,8.3-6H126.6z
	 M107.8,44.1h6.5v7.3c-1.8-0.5-3.8-2.2-5.5-5.2C108.5,45.5,108.2,44.8,107.8,44.1z M104.8,44.1l-9.9,0v1.6h6.4
	c2,1.9,4.3,3.5,6.9,4.5C106.8,48.5,105.7,46.5,104.8,44.1z M73.7,17.7c-1.4,0-2.6,0.4-2.6,1.9v0.3c0,1.4,1.2,1.9,2.6,1.9
	c1.4,0,2.6-0.4,2.6-1.9v-0.3C76.3,18.1,75.2,17.7,73.7,17.7z M29.3,17.8v3.8h1.5v-3.8H29.3z M35.3,19.8l-1.7-2h-2v3.8h1.5v-2.3
	l2,2.3h1.7v-3.8h-1.5V19.8z M40.5,19v2.6h-1.5V19h-1.8v-1.2h5V19H40.5z M42.8,21.6h4.4v-1h-3v-0.5h3v-0.9h-3v-0.5h3v-1h-4.4V21.6z
	 M48,21.6v-3.8h3.7c0.8,0,1.4,0.6,1.4,1.4c0,0.3-0.1,0.5-0.2,0.8c-0.1,0.2-0.4,0.4-0.6,0.5l0.8,1.1h-1.6l-0.7-0.9h-1.3v0.9H48z
	 M57.3,19.8l-1.7-2h-2v3.8h1.5v-2.3l2,2.3h1.7v-3.8h-1.5V19.8z M60.5,21.6h-1.7l2-3.8h1.8l2,3.8H63l-0.3-0.6h-1.9L60.5,21.6z
	 M67,21.6V19h1.8v-1.2h-5V19h1.8v2.6H67z M69.2,21.6v-3.8h1.5v3.8H69.2z M78.8,17.8l1.7,2v-2h1.5v3.8h-1.7l-2-2.3v2.3h-1.5v-3.8
	H78.8z M82.1,21.6h1.7l0.3-0.6h1.9l0.3,0.6h1.7l-2-3.8h-1.8L82.1,21.6z M88,21.6v-3.8h1.5v2.6h3v1.2H88z M33.2,40.5
	c-0.7,0-1.5,0.1-1.5,0.5c0,0.2,0.7,0.3,1.6,0.3l0,0c1.6,0.1,3.8,0.2,3.8,1.6c0,1.6-1.8,2-3.8,2c-2,0-3.6-0.2-3.8-2h2.3
	c0.3,0.4,0.8,0.5,1.5,0.5c0.7,0,1.5-0.1,1.5-0.5c0-0.2-0.7-0.3-1.6-0.3l0,0c-1.6-0.1-3.8-0.2-3.8-1.6c0-1.6,1.8-2,3.8-2
	c2,0,3.6,0.2,3.8,2h-2.3C34.4,40.6,33.8,40.5,33.2,40.5z M41.8,41v3.8h-2.2V41H37v-1.8h7.4V41H41.8z M43,44.8h2.5l0.4-1h2.8l0.4,1
	h2.5l-3-5.6H46L43,44.8z M54.8,39.2l2.5,3v-3h2.2v5.6H57l-3-3.4v3.4h-2.2v-5.6H54.8z M60.7,39.2v5.6h5c1.5,0,2.7-1.3,2.7-2.8
	c0-1.5-1.1-2.8-2.7-2.8H60.7z M70.4,44.8h-2.5l3-5.6h2.6l3,5.6h-2.5l-0.4-1h-2.8L70.4,44.8z M76.7,39.2v5.6h2.2v-1.4h2l1.1,1.4h2.3
	L83,43.2c0.4-0.2,0.7-0.4,0.9-0.8c0.2-0.3,0.3-0.7,0.3-1.1c0-1.2-1-2.1-2.1-2.1H76.7z M84.9,44.8v-5.6h5c1.5,0,2.7,1.3,2.7,2.8
	c0,1.5-1.1,2.8-2.7,2.8H84.9z M45.9,36.3h-4.4v-4.1l-1.8,4.1h-3.7l-1.8-4.1v4.1h-4.4V24.7h5.5l2.5,5.8l2.6-5.8h5.4V36.3z M60.1,36.3
	H47.9V24.7H60v3.6h-7.6v0.5h7.4v3.5h-7.4v0.5h7.7V36.3z M75.6,36.3h-3.8l-0.1-0.7c-0.9,0.5-2.2,0.9-3.9,0.9c-2.4,0-4.4-0.7-5.6-2.2
	c-0.7-0.9-1.1-2.2-1.1-3.7c0-1.4,0.3-2.6,1.1-3.6l0,0l0,0c1.2-1.5,3.3-2.4,6.3-2.4c3.4,0,5.6,1.1,6.6,3l0,0l0,0
	c0.2,0.5,0.3,1.1,0.4,1.5l0,0.1h0.1V36.3z M81.7,34.3l-1,2h-4.9L82,24.7H87l5.9,11.6h-4.9l-0.9-2H81.7z M29.3,50.6h63.5V49H29.3
	V50.6z"/>
<path class="st1" d="M32,2h83.7c16,0,29,13,29,29s-13,29-29,29H32C16,60,3,47,3,31S16,2,32,2z M32,4.8C17.5,4.8,5.8,16.5,5.8,31
	S17.5,57.2,32,57.2h83.7c14.5,0,26.2-11.7,26.2-26.2S130.2,4.8,115.7,4.8H32z"/>
</svg>
