<svg xmlns="http://www.w3.org/2000/svg" viewBox="0 0 359.73 499.62"><defs><style>.cls-1{fill:#fff;}</style></defs><g id="Layer_2" data-name="Layer 2"><g id="Layer_1-2" data-name="Layer 1"><polygon class="cls-1" points="297.29 496.75 359.73 499.62 330.99 444.12 273.53 333.09 244.8 277.57 182.35 274.7 119.92 271.81 91.18 216.31 62.45 160.79 96.16 108.15 124.89 163.66 153.62 219.18 216.07 222.05 187.32 166.55 158.59 111.03 129.86 55.52 101.13 0 0 157.92 28.73 213.44 57.45 268.94 57.46 268.96 86.19 324.45 86.2 324.46 148.65 327.33 211.08 330.22 239.82 385.72 239.81 385.73 268.56 441.24 268.55 441.25 206.11 438.36 177.4 382.86 177.38 382.85 177.37 382.86 114.92 379.99 143.67 435.49 172.4 491.01 234.84 493.88 297.29 496.75"/></g></g></svg>