<?xml version="1.0" encoding="utf-8"?>
<!-- Generator: Adobe Illustrator 25.4.1, SVG Export Plug-In . SVG Version: 6.00 Build 0)  -->
<svg version="1.1" id="logo-76" xmlns="http://www.w3.org/2000/svg" xmlns:xlink="http://www.w3.org/1999/xlink" x="0px" y="0px"
	 viewBox="0 0 218 40" style="enable-background:new 0 0 218 40;" xml:space="preserve">
<style type="text/css">
	.st0{fill:#9E9E9E;}
	.st1{fill-rule:evenodd;clip-rule:evenodd;fill:#9E9E9E;}
</style>
<path class="st0" d="M122.4,29.5h4.7V11.9h-4.7V29.5z M122.4,9.2h4.7V5h-4.7V9.2z"/>
<path class="st0" d="M130,35.3h4.7v-7.7h0.1c1,1.5,2.6,2.5,5.1,2.5c4.5,0,7.6-3.6,7.6-9.3c0-5.5-3-9.3-7.6-9.3c-2.4,0-4,1.1-5.2,2.7
	h-0.1v-2.2H130V35.3z M138.8,26.2c-2.8,0-4.3-2.1-4.3-5.3c0-3.2,1.2-5.7,4.1-5.7c2.9,0,4,2.3,4,5.7S141.2,26.2,138.8,26.2z"/>
<path class="st0" d="M156.7,30c4.4,0,7.4-2.1,7.4-5.7c0-4.1-3.3-4.9-6.2-5.6c-2.5-0.5-4.8-0.7-4.8-2.2c0-1.3,1.2-2,3-2
	c2,0,3.2,0.7,3.4,2.6h4.2c-0.3-3.5-2.9-5.8-7.5-5.8c-4,0-7.2,1.8-7.2,5.6c0,3.8,3.1,4.7,6.2,5.3c2.4,0.5,4.6,0.7,4.6,2.3
	c0,1.2-1.2,2-3.2,2c-2.1,0-3.5-0.9-3.8-2.9h-4.3C148.8,27.6,151.6,30,156.7,30z"/>
<path class="st0" d="M181.9,29.5V11.9h-4.7v10.1c0,2.3-1.3,4-3.5,4c-2,0-2.9-1.1-2.9-3.2V11.9h-4.6v11.7c0,3.8,2.2,6.3,6.1,6.3
	c2.5,0,3.8-0.9,5-2.5h0.1v2.1H181.9z"/>
<path class="st0" d="M184.9,29.5h4.7V19.3c0-2.3,1.3-3.8,3.2-3.8c1.7,0,2.7,1,2.7,3v11h4.7V19.3c0-2.3,1.2-3.8,3.2-3.8
	c1.7,0,2.7,1,2.7,3v11h4.7V17.7c0-3.8-2.1-6.2-5.8-6.2c-2.2,0-4.1,1.2-5.3,3.1h-0.1c-0.9-1.9-2.6-3.1-4.9-3.1
	c-2.4,0-4.1,1.2-5.1,2.8h-0.1v-2.4h-4.5V29.5z"/>
<path class="st0" d="M0.8,29.5h4.7V5H0.8V29.5z"/>
<path class="st0" d="M16.9,30c5.5,0,9.2-4,9.2-9.3c0-5.2-3.7-9.3-9.2-9.3c-5.5,0-9.2,4-9.2,9.3C7.7,26,11.4,30,16.9,30z M16.9,26.5
	c-2.9,0-4.5-2.3-4.5-5.7c0-3.4,1.6-5.8,4.5-5.8c2.8,0,4.5,2.3,4.5,5.8C21.3,24.2,19.7,26.5,16.9,26.5z"/>
<path class="st0" d="M36,35.5c2.6,0,4.9-0.6,6.3-2c1.3-1.2,2.1-2.9,2.1-5.3V11.9h-4.5v1.9h-0.1c-1.1-1.5-2.7-2.3-4.9-2.3
	c-4.5,0-7.6,3.4-7.6,8.6c0,5.3,3.8,8.4,7.7,8.4c2.2,0,3.6-0.9,4.6-2.1h0.1v1.9c0,2.4-1.3,3.7-3.9,3.7c-2.2,0-3.2-0.9-3.5-2h-4.6
	C28.2,33.5,31.2,35.5,36,35.5z M35.9,24.7c-2.4,0-4-1.7-4-4.7c0-2.9,1.6-4.8,3.9-4.8c2.8,0,4.2,2.2,4.2,4.8
	C40.1,22.6,38.9,24.7,35.9,24.7z"/>
<path class="st0" d="M55.8,30c5.5,0,9.2-4,9.2-9.3c0-5.2-3.7-9.3-9.2-9.3s-9.2,4-9.2,9.3C46.6,26,50.3,30,55.8,30z M55.8,26.5
	c-2.9,0-4.5-2.3-4.5-5.7c0-3.4,1.6-5.8,4.5-5.8c2.8,0,4.5,2.3,4.5,5.8C60.2,24.2,58.6,26.5,55.8,26.5z"/>
<path class="st0" d="M212.3,9c0-0.8,0.6-1.4,1.4-1.4h2.9c0.8,0,1.4,0.6,1.4,1.4c0,0.8-0.6,1.4-1.4,1.4h-2.9
	C212.9,10.5,212.3,9.8,212.3,9z"/>
<path class="st1" d="M93.2,0c11,0,20,9,20,20s-9,20-20,20c-11,0-20-9-20-20S82.2,0,93.2,0z M92.5,1.5c-2.3,0.3-4.5,2.2-6.1,5.2
	c-0.5,0.9-0.9,1.9-1.3,2.9c2.3-0.6,4.8-0.9,7.5-1V1.5z M83.4,10.1c0.5-1.5,1.1-2.9,1.7-4.1c0.8-1.5,1.8-2.8,2.9-3.8
	C82,3.9,77.2,8.7,75.4,14.8c1-1.1,2.3-2.1,3.8-2.9C80.5,11.2,81.9,10.6,83.4,10.1z M82.9,11.8c-0.6,2.3-0.9,4.8-1,7.5h-7.2
	c0.3-2.3,2.2-4.5,5.2-6.1C80.8,12.6,81.8,12.2,82.9,11.8z M83.4,19.3c0.1-2.9,0.5-5.6,1.2-8c2.4-0.7,5.1-1.1,8-1.2v3.1
	c-1.1,2.8-3.3,5-6,6H83.4z M81.9,20.7h-7.2c0.3,2.3,2.2,4.5,5.2,6.1c0.9,0.5,1.9,0.9,2.9,1.3C82.3,25.9,82,23.4,81.9,20.7z
	 M84.5,28.7c-0.7-2.4-1.1-5.1-1.2-8h3.1c2.8,1.1,5,3.3,6,6v3.1C89.6,29.8,86.9,29.4,84.5,28.7z M83.4,29.9c-1.5-0.5-2.9-1.1-4.1-1.7
	c-1.5-0.8-2.8-1.8-3.8-2.9C77.2,31.3,82,36.1,88,37.8c-1.1-1-2.1-2.3-2.9-3.8C84.4,32.8,83.8,31.4,83.4,29.9z M92.5,38.5
	c-2.3-0.3-4.5-2.2-6.1-5.2c-0.5-0.9-0.9-1.9-1.3-2.9c2.3,0.6,4.8,0.9,7.5,1V38.5z M98.4,37.8c1.1-1,2.1-2.3,2.9-3.8
	c0.7-1.2,1.3-2.6,1.7-4.1c1.5-0.5,2.9-1.1,4.1-1.7c1.5-0.8,2.8-1.8,3.8-2.9C109.3,31.3,104.5,36.1,98.4,37.8z M101.4,30.3
	c-0.4,1.1-0.8,2-1.3,2.9c-1.7,3.1-3.9,4.9-6.1,5.2v-7.2C96.6,31.3,99.1,30.9,101.4,30.3z M103.6,28.2c1.1-0.4,2-0.8,2.9-1.3
	c3.1-1.7,4.9-3.9,5.2-6.1h-7.2C104.5,23.4,104.2,25.9,103.6,28.2z M103.1,20.7c-0.1,2.9-0.5,5.6-1.2,8c-2.4,0.7-5.1,1.1-8,1.2v-3.1
	c1.1-2.8,3.3-5,6-6H103.1z M104.5,19.3h7.2c-0.3-2.3-2.2-4.5-5.2-6.1c-0.9-0.5-1.9-0.9-2.9-1.3C104.2,14.1,104.5,16.6,104.5,19.3z
	 M101.9,11.3c0.7,2.4,1.1,5.1,1.2,8H100c-2.8-1.1-5-3.3-6-6v-3.1C96.8,10.2,99.5,10.6,101.9,11.3z M103.1,10.1
	c1.5,0.5,2.9,1.1,4.1,1.7c1.5,0.8,2.8,1.8,3.8,2.9c-1.8-6.1-6.6-10.9-12.6-12.6c1.1,1,2.1,2.3,2.9,3.8C102,7.2,102.6,8.6,103.1,10.1
	z M94,1.5c2.3,0.3,4.5,2.2,6.1,5.2c0.5,0.9,0.9,1.9,1.3,2.9c-2.3-0.6-4.8-0.9-7.5-1V1.5z"/>
</svg>
